<?xml version="1.0" encoding="utf-8"?>
<!-- Generator: Adobe Illustrator 21.1.0, SVG Export Plug-In . SVG Version: 6.00 Build 0)  -->
<svg version="1.1" id="Layer_4" xmlns="http://www.w3.org/2000/svg" xmlns:xlink="http://www.w3.org/1999/xlink" x="0px" y="0px"
	 viewBox="0 0 612 792" style="enable-background:new 0 0 612 792;" xml:space="preserve">
<style type="text/css">
	.st0{fill:#FFFFFF;}
	.st1{fill:none;stroke:#231F20;stroke-width:3;stroke-miterlimit:10;}
	.st2{font-family:'Arial-BoldMT';}
	.st3{font-size:44px;}
	.st4{fill:#FFFFFF;stroke:#0054A5;stroke-width:4;stroke-miterlimit:10;}
	.st5{fill:none;stroke:#0054A5;stroke-width:4;stroke-miterlimit:10;}
	.st6{fill:none;stroke:#0054A5;stroke-width:3;stroke-miterlimit:10;}
	.st7{fill:#0455A4;stroke:#0054A5;stroke-miterlimit:10;}
	.st8{fill:none;stroke:#0054A5;stroke-width:0.75;stroke-miterlimit:10;}
	.st9{fill:none;stroke:#0054A5;stroke-miterlimit:10;}
	.st10{fill:none;stroke:#0054A5;stroke-width:2;stroke-miterlimit:10;}
	.st11{fill:none;stroke:#0054A5;stroke-width:6;stroke-miterlimit:10;}
	.st12{fill:#0054A5;stroke:#0054A5;stroke-miterlimit:10;}
	.st13{fill:none;stroke:#0054A5;stroke-width:2.5;stroke-miterlimit:10;}
	.st14{fill:none;stroke:#0455A4;stroke-width:2;stroke-miterlimit:10;}
	.st15{fill:none;stroke:#0455A4;stroke-miterlimit:10;}
	.st16{fill:#0756A3;stroke:#0455A4;stroke-width:2;stroke-miterlimit:10;}
	.st17{fill:#0757A3;stroke:#0455A4;stroke-miterlimit:10;}
	.st18{fill:#0455A4;stroke:#0054A5;stroke-width:4;stroke-miterlimit:10;}
	.st19{fill:#FFFFFF;stroke:#FFFFFF;stroke-miterlimit:10;}
	.st20{fill:none;}
</style>
<polygon class="st0" points="304.5,646.5 10,144.7 599,144.7 "/>
<polygon class="st1" points="304.5,646.5 10,144.5 599,144.5 "/>
<polygon class="st1" points="305.5,546 99.5,196 511.5,196 "/>
<text transform="matrix(1 0 0 1 237 184)" class="st2 st3">Liquid</text>
<text transform="matrix(0.52 0.8542 -0.8542 0.52 100.0034 282.5355)" class="st2 st3">Automation</text>
<text transform="matrix(0.5054 -0.8629 0.8629 0.5054 376.6478 499.7876)" class="st2 st3">Incorporated</text>
<line class="st4" x1="212.8" y1="224" x2="212.8" y2="233.9"/>
<line class="st5" x1="230.1" y1="249.6" x2="218.4" y2="245.4"/>
<line class="st5" x1="246.6" y1="224" x2="246.6" y2="234.9"/>
<line class="st5" x1="229.9" y1="249.6" x2="241.1" y2="245.3"/>
<line class="st5" x1="231.7" y1="316.4" x2="230.4" y2="251.6"/>
<path class="st6" d="M230.2,264.7c0-9.4,2.3-17,5-17"/>
<path class="st6" d="M230.2,264.7c0-9-1.6-16.3-3.7-16.3"/>
<ellipse transform="matrix(0.9983 -5.894346e-02 5.894346e-02 0.9983 -18.2223 14.2072)" class="st7" cx="231.7" cy="316" rx="1.5" ry="2.2"/>
<path class="st8" d="M252.5,333.4c0,10.2-9.4,18.4-21,18.4s-21-8.3-21-18.4c0-5.5,2.8-10.5,7.2-13.9c3.7-2.8,8.5-4.6,13.8-4.6
	C243.1,315,252.5,323.2,252.5,333.4z"/>
<g id="XMLID_1_">
	<g>
	</g>
	<g>
		<path class="st8" d="M230.4,315c-10.4,0.7-18.2,10-17.4,19.9c0.7,9.2,8.5,16.7,18.1,16.9"/>
	</g>
</g>
<path class="st8" d="M232.4,315c10,0,18.1,8.3,18.1,18.6c0,0,0,0.1,0,0.3c-0.2,10-7.6,18.1-16.8,18.1"/>
<ellipse class="st9" cx="231.5" cy="333.4" rx="20.3" ry="18.5"/>
<ellipse class="st9" cx="231.6" cy="333.4" rx="19.5" ry="18.5"/>
<path class="st5" d="M285.8,341.7c-26.1,0.4-34-0.6-34-4.3"/>
<line class="st10" x1="251.8" y1="332.1" x2="253.1" y2="338"/>
<line class="st10" x1="287.9" y1="323.7" x2="284" y2="334.1"/>
<line class="st10" x1="287.9" y1="323.7" x2="311.8" y2="332.7"/>
<line class="st10" x1="306.9" y1="343" x2="311.8" y2="332.7"/>
<line class="st10" x1="294.7" y1="338.8" x2="306.9" y2="343"/>
<line class="st10" x1="287.6" y1="336.6" x2="284" y2="334.1"/>
<line class="st5" x1="287" y1="335.6" x2="264.4" y2="393.7"/>
<line class="st5" x1="303.9" y1="342.2" x2="283" y2="400.2"/>
<rect x="257.5" y="396.9" transform="matrix(0.9322 0.3619 -0.3619 0.9322 165.7325 -70.3849)" class="st10" width="26.6" height="20.6"/>
<ellipse class="st10" cx="270.2" cy="407.3" rx="5.5" ry="5"/>
<line class="st10" x1="254.6" y1="412" x2="261.5" y2="419.8"/>
<line class="st10" x1="279.4" y1="421.6" x2="268.8" y2="421.5"/>
<line class="st10" x1="258.3" y1="414.4" x2="274.7" y2="420.8"/>
<line class="st10" x1="271.2" y1="421.3" x2="259.3" y2="416.4"/>
<line class="st10" x1="268.8" y1="421.5" x2="261.7" y2="419.2"/>
<line class="st11" x1="265.2" y1="420.4" x2="257.8" y2="441.5"/>
<ellipse transform="matrix(0.4303 -0.9027 0.9027 0.4303 -250.8109 481.2878)" class="st12" cx="255.9" cy="439.3" rx="8.4" ry="3.4"/>
<ellipse transform="matrix(0.2024 -0.9793 0.9793 0.2024 -223.8931 608.3551)" class="st12" cx="261.5" cy="441.6" rx="8.4" ry="3.4"/>
<line class="st10" x1="255.9" y1="434.3" x2="261.5" y2="425.7"/>
<line class="st13" x1="264.5" y1="438.2" x2="265.2" y2="423"/>
<line class="st5" x1="297.5" y1="332.7" x2="379.2" y2="332.7"/>
<line class="st14" x1="333.8" y1="339.6" x2="379.2" y2="339.6"/>
<line class="st10" x1="379.2" y1="332.7" x2="379.2" y2="339.6"/>
<path class="st15" d="M333.2,340.6"/>
<polygon class="st15" points="333.8,339.8 331.5,333.4 338.6,335 "/>
<line class="st14" x1="332.4" y1="334" x2="334.1" y2="339.1"/>
<line class="st14" x1="334.1" y1="334" x2="334.1" y2="339.1"/>
<rect x="334.7" y="333.6" class="st16" width="43.5" height="5.4"/>
<ellipse class="st16" cx="297.7" cy="332.7" rx="0" ry="0"/>
<path class="st14" d="M376.1,347.9c-2,0-5-4.6-5-7.8"/>
<path class="st14" d="M382,347.1c2,0,5-4.6,5-7.8"/>
<line class="st14" x1="371.1" y1="340.1" x2="371.1" y2="258.8"/>
<line class="st14" x1="386.9" y1="339.3" x2="385.9" y2="260"/>
<path class="st14" d="M375.4,248.9c-1.7,0-4.3,5.8-4.3,9.9"/>
<path class="st14" d="M380.6,248.9c2.1,0,5.3,6.6,5.3,11.1"/>
<circle class="st14" cx="377.9" cy="235" r="7.8"/>
<ellipse class="st14" cx="377.8" cy="234.5" rx="0" ry="0.1"/>
<line class="st14" x1="382.3" y1="228.6" x2="377.9" y2="234.5"/>
<path class="st14" d="M374.1,241.6c2.2,2.2,3,4.9,2.1,6.4c-0.2,0.3-0.5,0.8-1.3,1.1"/>
<path class="st14" d="M381.9,241.7c-1.9,2.2-2.7,4.7-2,6.2c0.1,0.3,0.4,0.7,1.1,1"/>
<rect x="376.3" y="242.8" class="st17" width="3.8" height="6.4"/>
<rect x="374.1" y="249.7" class="st17" width="8.5" height="1.2"/>
<path class="st5" d="M212.8,233.6c0,5.8,3.2,11.8,6.3,11.8"/>
<ellipse class="st18" cx="212.8" cy="224.3" rx="0.1" ry="0"/>
<ellipse class="st18" cx="246.6" cy="224.3" rx="0.1" ry="0"/>
<path class="st5" d="M246.6,234.9c0,5.2-3.4,10.6-6.6,10.6"/>
<rect x="229" y="249.2" class="st6" width="2" height="2.5"/>
<ellipse transform="matrix(0.866 -0.5 0.5 0.866 -90.0023 153.603)" class="st19" cx="241.6" cy="244.7" rx="3.7" ry="0.4"/>
<ellipse transform="matrix(0.4664 -0.8846 0.8846 0.4664 -99.5247 329.9095)" class="st19" cx="223.7" cy="247.4" rx="0.5" ry="3.2"/>
<path class="st19" d="M213.9,243.7"/>
<ellipse class="st19" cx="234.5" cy="248.5" rx="0" ry="0.4"/>
<ellipse transform="matrix(0.306 -0.952 0.952 0.306 -223.5563 546.6511)" class="st0" cx="263.2" cy="426.7" rx="5.9" ry="1.7"/>
<ellipse transform="matrix(0.306 -0.952 0.952 0.306 -237.4987 551.2545)" class="st0" cx="259.4" cy="438.5" rx="2.7" ry="4"/>
<path class="st0" d="M335.5,337.4h-3.6c-0.3,0-0.6-0.3-0.6-0.6V336c0-0.3,0.3-0.6,0.6-0.6h3.6c0.3,0,0.6,0.3,0.6,0.6v0.7
	C336.1,337.1,335.8,337.4,335.5,337.4z"/>
<path class="st0" d="M352.5,337.4h-9c-0.3,0-0.6-0.3-0.6-0.6V336c0-0.3,0.3-0.6,0.6-0.6h9c0.3,0,0.6,0.3,0.6,0.6v0.7
	C353.1,337.1,352.8,337.4,352.5,337.4z"/>
<path class="st0" d="M367.3,337.4h-5.6c-0.3,0-0.6-0.3-0.6-0.6V336c0-0.3,0.3-0.6,0.6-0.6h5.6c0.3,0,0.6,0.3,0.6,0.6v0.7
	C367.9,337.1,367.6,337.4,367.3,337.4z"/>
<line class="st1" x1="209" y1="220" x2="209" y2="251.3"/>
<line class="st1" x1="251.3" y1="220" x2="208" y2="220"/>
<line class="st1" x1="251.3" y1="251.3" x2="251.3" y2="220"/>
<line class="st1" x1="240" y1="251.3" x2="251.3" y2="251.3"/>
<line class="st1" x1="219" y1="251.3" x2="208" y2="251.3"/>
<line class="st1" x1="219" y1="312" x2="219" y2="251.3"/>
<line class="st1" x1="209" y1="312" x2="219" y2="312"/>
<line class="st1" x1="209" y1="353.3" x2="209" y2="312"/>
<line class="st1" x1="274.7" y1="353.3" x2="208" y2="353.3"/>
<line class="st1" x1="240" y1="312" x2="240" y2="251.3"/>
<line class="st1" x1="276.7" y1="312" x2="240" y2="312"/>
<line class="st1" x1="276.7" y1="323.3" x2="276.7" y2="293"/>
<line class="st1" x1="335" y1="293" x2="276.7" y2="293"/>
<line class="st1" x1="335" y1="323.3" x2="335" y2="293"/>
<line class="st1" x1="325.7" y1="323.3" x2="335" y2="323.3"/>
<line class="st1" x1="286" y1="323.3" x2="276.7" y2="323.3"/>
<line class="st1" x1="348.2" y1="385" x2="325.7" y2="323.3"/>
<line class="st1" x1="357.8" y1="385" x2="348.2" y2="385"/>
<line class="st1" x1="357.7" y1="425.7" x2="357.7" y2="385"/>
<line class="st1" x1="317.7" y1="425.7" x2="357.7" y2="425.7"/>
<line class="st1" x1="317.7" y1="379" x2="317.7" y2="425.7"/>
<line class="st1" x1="294" y1="379" x2="317.7" y2="379"/>
<line class="st1" x1="294" y1="425.7" x2="294" y2="379"/>
<line class="st1" x1="253" y1="425.7" x2="294" y2="425.7"/>
<line class="st1" x1="253" y1="385" x2="253" y2="425.7"/>
<line class="st1" x1="262.7" y1="385" x2="253" y2="385"/>
<line class="st1" x1="286" y1="323.3" x2="262.7" y2="385"/>
<line class="st1" x1="305.8" y1="348.7" x2="300" y2="364"/>
<line class="st1" x1="311.3" y1="363.7" x2="300" y2="364"/>
<line class="st1" x1="305.8" y1="348.7" x2="311.3" y2="363.7"/>
<line class="st1" x1="358.3" y1="312" x2="367.7" y2="312"/>
<line class="st1" x1="367.7" y1="251.3" x2="367.7" y2="312"/>
<line class="st1" x1="359.3" y1="251.3" x2="367.7" y2="251.3"/>
<line class="st1" x1="359.3" y1="220" x2="359.3" y2="251.3"/>
<line class="st1" x1="399" y1="220" x2="359.3" y2="220"/>
<line class="st1" x1="399" y1="251.3" x2="399" y2="220"/>
<line class="st1" x1="390" y1="251.3" x2="399" y2="251.3"/>
<line class="st1" x1="390" y1="312" x2="390" y2="251.3"/>
<line class="st1" x1="399" y1="312" x2="390" y2="312"/>
<line class="st1" x1="399" y1="353.3" x2="399" y2="312"/>
<line class="st1" x1="358.3" y1="353.3" x2="399" y2="353.3"/>
<line class="st1" x1="358.3" y1="312" x2="358.3" y2="353.3"/>
<line class="st1" x1="282.3" y1="323.3" x2="282.3" y2="332.7"/>
<path class="st20" d="M240.2,247.8"/>
</svg>
